<svg id="Layer_1" data-name="Layer 1" xmlns="http://www.w3.org/2000/svg" viewBox="0 0 26 26">
<path class="cls-1" d="M17.78,16.3a9.06,9.06,0,0,0,3.46-9.51,8.59,8.59,0,0,0-3-4.55,7.81,7.81,0,0,0-9.57-.08,8.67,8.67,0,0,0-3,4.63,8.52,8.52,0,0,0-.16,5.38,8,8,0,0,0,3.38,4.22L9,20h8.45Z"/>
<line class="cls-1" x1="10.57" y1="23.25" x2="16.13" y2="23.25"/>
<line class="cls-1" x1="11.42" y1="25.07" x2="15.28" y2="25.07"/>
<path class="cls-1" d="M12.57,3.88a3.56,3.56,0,0,0-3,1.36A6,6,0,0,0,8.35,9.05"/>
</svg>