<svg id="Layer_1" data-name="Layer 1" xmlns="http://www.w3.org/2000/svg" viewBox="0 0 26 26"><path d="M22.16,11.77a9.77,9.77,0,0,1-6.39,9.09A9.66,9.66,0,0,1,4.2,6.82,9.75,9.75,0,0,1,14.29,2.27a9.79,9.79,0,0,1,7.87,9.5.75.75,0,0,0,1.5,0A11.31,11.31,0,0,0,16.43,1.33,11.16,11.16,0,0,0,2.91,17.48a11.28,11.28,0,0,0,11.64,5.26,11.3,11.3,0,0,0,9.11-11A.75.75,0,0,0,22.16,11.77Z"/><path d="M22.88,24.18l-3.19-4-.45-.56a.75.75,0,0,0-1.06,0,.77.77,0,0,0,0,1.06l3.2,4,.44.57a.75.75,0,0,0,1.06,0,.77.77,0,0,0,0-1.06Z"/></svg>